<svg width="14" height="14" viewBox="0 0 14 14" fill="none" xmlns="http://www.w3.org/2000/svg">
    <defs>
        <clipPath id="clip0_6028_11286">
            <rect width="14" height="14" fill="white" />
        </clipPath>
    </defs>
    <g clip-path="url(#clip0_6028_11286)">
        <path d="M10.0065 8.1661C10.1407 8.4671 10.2083 8.80193 10.2083 9.16943C10.2083 9.95226 9.90267 10.5648 9.29192 11.0052C8.68 11.4456 7.83592 11.6661 6.7585 11.6661C5.80183 11.6661 4.85508 11.4438 3.91767 10.9988V9.68276C4.80433 10.1943 5.71142 10.4504 6.6395 10.4504C8.12758 10.4504 8.87367 10.0234 8.87892 9.16885C8.88199 8.99558 8.85011 8.82347 8.78516 8.6628C8.72021 8.50214 8.62354 8.35622 8.50092 8.23376L8.43092 8.16551H1.75V6.99885H12.25V8.16551H10.0065V8.1661ZM7.62767 6.4161H4.45025C4.34807 6.32293 4.25418 6.22104 4.16967 6.1116C3.91767 5.7861 3.79167 5.39293 3.79167 4.92976C3.79167 4.20876 4.0635 3.59568 4.60658 3.09051C5.15083 2.58535 5.99142 2.33276 7.1295 2.33276C7.98758 2.33276 8.80892 2.5241 9.59233 2.90676V4.1621C8.89233 3.76135 8.12525 3.56126 7.2905 3.56126C5.84383 3.56126 5.12108 4.01743 5.12108 4.92976C5.12108 5.17476 5.24825 5.38826 5.50258 5.57085C5.75692 5.75343 6.07075 5.89868 6.4435 6.00835C6.80517 6.11335 7.20008 6.24985 7.62767 6.4161Z" fill="#484848" />
    </g>
</svg>