<svg width="14" height="14" viewBox="0 0 14 14" fill="none" xmlns="http://www.w3.org/2000/svg">
    <defs>
        <clipPath id="clip0_6028_11283">
            <rect width="14" height="14" fill="white" />
        </clipPath>
    </defs>
    <g clip-path="url(#clip0_6028_11283)">
        <path d="M4.66634 1.75V7C4.66634 7.61884 4.91217 8.21233 5.34976 8.64992C5.78734 9.0875 6.38084 9.33333 6.99967 9.33333C7.61851 9.33333 8.212 9.0875 8.64959 8.64992C9.08717 8.21233 9.33301 7.61884 9.33301 7V1.75H10.4997V7C10.4997 7.92826 10.1309 8.8185 9.47455 9.47487C8.81817 10.1313 7.92793 10.5 6.99967 10.5C6.07142 10.5 5.18118 10.1313 4.5248 9.47487C3.86842 8.8185 3.49967 7.92826 3.49967 7V1.75H4.66634ZM2.33301 11.6667H11.6663V12.8333H2.33301V11.6667Z" fill="#484848" />
    </g>
</svg>